<svg xmlns="http://www.w3.org/2000/svg"  viewBox="0 0 30 30" width="24px" height="24px"><path d="M 7 2 C 5.895 2 5 2.895 5 4 L 5 26 C 5 27.105 5.895 28 7 28 L 16.720703 28 C 15.055703 26.534 14 24.393 14 22 C 14 17.582 17.582 14 22 14 C 23.062 14 24.073 14.211891 25 14.587891 L 25 9.5 C 25 9.235 24.895031 8.9799688 24.707031 8.7929688 L 18.207031 2.2929688 C 18.019031 2.1049688 17.765 2 17.5 2 L 7 2 z M 17 3.9042969 L 23.095703 10 L 18 10 C 17.448 10 17 9.552 17 9 L 17 3.9042969 z M 22 16 C 18.698136 16 16 18.698136 16 22 C 16 25.301864 18.698136 28 22 28 C 23.291499 28 24.487316 27.583068 25.46875 26.882812 L 28.292969 29.707031 A 1.0001 1.0001 0 1 0 29.707031 28.292969 L 26.882812 25.46875 C 27.583068 24.487316 28 23.291499 28 22 C 28 18.698136 25.301864 16 22 16 z M 22 18 C 24.220984 18 26 19.779016 26 22 C 26 24.220984 24.220984 26 22 26 C 19.779016 26 18 24.220984 18 22 C 18 19.779016 19.779016 18 22 18 z"/></svg>